{
	"patcher" : 	{
		"fileversion" : 1,
		"appversion" : 		{
			"major" : 8,
			"minor" : 0,
			"revision" : 1,
			"architecture" : "x64",
			"modernui" : 1
		}
,
		"classnamespace" : "box",
		"rect" : [ 2296.0, 124.0, 926.0, 221.0 ],
		"bglocked" : 0,
		"openinpresentation" : 1,
		"default_fontsize" : 12.0,
		"default_fontface" : 0,
		"default_fontname" : "Arial",
		"gridonopen" : 1,
		"gridsize" : [ 15.0, 15.0 ],
		"gridsnaponopen" : 1,
		"objectsnaponopen" : 1,
		"statusbarvisible" : 2,
		"toolbarvisible" : 1,
		"lefttoolbarpinned" : 0,
		"toptoolbarpinned" : 0,
		"righttoolbarpinned" : 0,
		"bottomtoolbarpinned" : 0,
		"toolbars_unpinned_last_save" : 0,
		"tallnewobj" : 0,
		"boxanimatetime" : 200,
		"enablehscroll" : 1,
		"enablevscroll" : 1,
		"devicewidth" : 0.0,
		"description" : "",
		"digest" : "",
		"tags" : "",
		"style" : "",
		"subpatcher_template" : "",
		"boxes" : [ 			{
				"box" : 				{
					"comment" : "",
					"id" : "obj-12",
					"index" : 0,
					"maxclass" : "inlet",
					"numinlets" : 0,
					"numoutlets" : 1,
					"outlettype" : [ "" ],
					"patching_rect" : [ 401.0, 7.0, 30.0, 30.0 ]
				}

			}
, 			{
				"box" : 				{
					"comment" : "",
					"id" : "obj-11",
					"index" : 0,
					"maxclass" : "inlet",
					"numinlets" : 0,
					"numoutlets" : 1,
					"outlettype" : [ "" ],
					"patching_rect" : [ 207.0, 7.0, 30.0, 30.0 ]
				}

			}
, 			{
				"box" : 				{
					"comment" : "",
					"id" : "obj-2",
					"index" : 0,
					"maxclass" : "inlet",
					"numinlets" : 0,
					"numoutlets" : 1,
					"outlettype" : [ "" ],
					"patching_rect" : [ 13.0, 7.0, 30.0, 30.0 ]
				}

			}
, 			{
				"box" : 				{
					"bgmode" : 0,
					"border" : 0,
					"clickthrough" : 0,
					"enablehscroll" : 0,
					"enablevscroll" : 0,
					"id" : "obj-10",
					"lockeddragscroll" : 0,
					"maxclass" : "bpatcher",
					"name" : "MappingElement.maxpat",
					"numinlets" : 3,
					"numoutlets" : 0,
					"offset" : [ 0.0, 0.0 ],
					"patching_rect" : [ 13.0, 248.0, 407.0, 25.0 ],
					"presentation" : 1,
					"presentation_rect" : [ 1.0, 120.0, 407.0, 19.0 ],
					"varname" : "MappingElement[1]",
					"viewvisibility" : 1
				}

			}
, 			{
				"box" : 				{
					"bgmode" : 0,
					"border" : 0,
					"clickthrough" : 0,
					"enablehscroll" : 0,
					"enablevscroll" : 0,
					"id" : "obj-9",
					"lockeddragscroll" : 0,
					"maxclass" : "bpatcher",
					"name" : "MappingElement.maxpat",
					"numinlets" : 3,
					"numoutlets" : 0,
					"offset" : [ 0.0, 0.0 ],
					"patching_rect" : [ 13.0, 221.0, 407.0, 25.0 ],
					"presentation" : 1,
					"presentation_rect" : [ 1.0, 103.0, 407.0, 19.0 ],
					"varname" : "MappingElement[2]",
					"viewvisibility" : 1
				}

			}
, 			{
				"box" : 				{
					"bgmode" : 0,
					"border" : 0,
					"clickthrough" : 0,
					"enablehscroll" : 0,
					"enablevscroll" : 0,
					"id" : "obj-8",
					"lockeddragscroll" : 0,
					"maxclass" : "bpatcher",
					"name" : "MappingElement.maxpat",
					"numinlets" : 3,
					"numoutlets" : 0,
					"offset" : [ 0.0, 0.0 ],
					"patching_rect" : [ 13.0, 194.0, 407.0, 25.0 ],
					"presentation" : 1,
					"presentation_rect" : [ 1.0, 86.0, 407.0, 19.0 ],
					"varname" : "MappingElement[3]",
					"viewvisibility" : 1
				}

			}
, 			{
				"box" : 				{
					"bgmode" : 0,
					"border" : 0,
					"clickthrough" : 0,
					"enablehscroll" : 0,
					"enablevscroll" : 0,
					"id" : "obj-7",
					"lockeddragscroll" : 0,
					"maxclass" : "bpatcher",
					"name" : "MappingElement.maxpat",
					"numinlets" : 3,
					"numoutlets" : 0,
					"offset" : [ 0.0, 0.0 ],
					"patching_rect" : [ 13.0, 167.0, 407.0, 25.0 ],
					"presentation" : 1,
					"presentation_rect" : [ 1.0, 69.0, 407.0, 19.0 ],
					"varname" : "MappingElement[4]",
					"viewvisibility" : 1
				}

			}
, 			{
				"box" : 				{
					"bgmode" : 0,
					"border" : 0,
					"clickthrough" : 0,
					"enablehscroll" : 0,
					"enablevscroll" : 0,
					"id" : "obj-6",
					"lockeddragscroll" : 0,
					"maxclass" : "bpatcher",
					"name" : "MappingElement.maxpat",
					"numinlets" : 3,
					"numoutlets" : 0,
					"offset" : [ 0.0, 0.0 ],
					"patching_rect" : [ 13.0, 140.0, 407.0, 25.0 ],
					"presentation" : 1,
					"presentation_rect" : [ 1.0, 52.0, 407.0, 19.0 ],
					"varname" : "MappingElement[5]",
					"viewvisibility" : 1
				}

			}
, 			{
				"box" : 				{
					"bgmode" : 0,
					"border" : 0,
					"clickthrough" : 0,
					"enablehscroll" : 0,
					"enablevscroll" : 0,
					"id" : "obj-5",
					"lockeddragscroll" : 0,
					"maxclass" : "bpatcher",
					"name" : "MappingElement.maxpat",
					"numinlets" : 3,
					"numoutlets" : 0,
					"offset" : [ 0.0, 0.0 ],
					"patching_rect" : [ 13.0, 113.0, 407.0, 25.0 ],
					"presentation" : 1,
					"presentation_rect" : [ 1.0, 35.0, 407.0, 19.0 ],
					"varname" : "MappingElement[6]",
					"viewvisibility" : 1
				}

			}
, 			{
				"box" : 				{
					"bgmode" : 0,
					"border" : 0,
					"clickthrough" : 0,
					"enablehscroll" : 0,
					"enablevscroll" : 0,
					"id" : "obj-4",
					"lockeddragscroll" : 0,
					"maxclass" : "bpatcher",
					"name" : "MappingElement.maxpat",
					"numinlets" : 3,
					"numoutlets" : 0,
					"offset" : [ 0.0, 0.0 ],
					"patching_rect" : [ 13.0, 86.0, 407.0, 25.0 ],
					"presentation" : 1,
					"presentation_rect" : [ 1.0, 18.0, 407.0, 19.0 ],
					"varname" : "MappingElement[7]",
					"viewvisibility" : 1
				}

			}
, 			{
				"box" : 				{
					"bgmode" : 0,
					"border" : 0,
					"clickthrough" : 0,
					"enablehscroll" : 0,
					"enablevscroll" : 0,
					"id" : "obj-1",
					"lockeddragscroll" : 0,
					"maxclass" : "bpatcher",
					"name" : "MappingElement.maxpat",
					"numinlets" : 3,
					"numoutlets" : 0,
					"offset" : [ 0.0, 0.0 ],
					"patching_rect" : [ 13.0, 58.0, 407.0, 25.0 ],
					"presentation" : 1,
					"presentation_rect" : [ 1.0, 1.0, 407.0, 19.0 ],
					"varname" : "MappingElement",
					"viewvisibility" : 1
				}

			}
 ],
		"lines" : [ 			{
				"patchline" : 				{
					"destination" : [ "obj-1", 1 ],
					"order" : 0,
					"source" : [ "obj-11", 0 ]
				}

			}
, 			{
				"patchline" : 				{
					"destination" : [ "obj-10", 1 ],
					"order" : 7,
					"source" : [ "obj-11", 0 ]
				}

			}
, 			{
				"patchline" : 				{
					"destination" : [ "obj-4", 1 ],
					"order" : 1,
					"source" : [ "obj-11", 0 ]
				}

			}
, 			{
				"patchline" : 				{
					"destination" : [ "obj-5", 1 ],
					"order" : 2,
					"source" : [ "obj-11", 0 ]
				}

			}
, 			{
				"patchline" : 				{
					"destination" : [ "obj-6", 1 ],
					"order" : 3,
					"source" : [ "obj-11", 0 ]
				}

			}
, 			{
				"patchline" : 				{
					"destination" : [ "obj-7", 1 ],
					"order" : 4,
					"source" : [ "obj-11", 0 ]
				}

			}
, 			{
				"patchline" : 				{
					"destination" : [ "obj-8", 1 ],
					"order" : 5,
					"source" : [ "obj-11", 0 ]
				}

			}
, 			{
				"patchline" : 				{
					"destination" : [ "obj-9", 1 ],
					"order" : 6,
					"source" : [ "obj-11", 0 ]
				}

			}
, 			{
				"patchline" : 				{
					"destination" : [ "obj-1", 2 ],
					"order" : 0,
					"source" : [ "obj-12", 0 ]
				}

			}
, 			{
				"patchline" : 				{
					"destination" : [ "obj-10", 2 ],
					"order" : 7,
					"source" : [ "obj-12", 0 ]
				}

			}
, 			{
				"patchline" : 				{
					"destination" : [ "obj-4", 2 ],
					"order" : 1,
					"source" : [ "obj-12", 0 ]
				}

			}
, 			{
				"patchline" : 				{
					"destination" : [ "obj-5", 2 ],
					"order" : 2,
					"source" : [ "obj-12", 0 ]
				}

			}
, 			{
				"patchline" : 				{
					"destination" : [ "obj-6", 2 ],
					"order" : 3,
					"source" : [ "obj-12", 0 ]
				}

			}
, 			{
				"patchline" : 				{
					"destination" : [ "obj-7", 2 ],
					"order" : 4,
					"source" : [ "obj-12", 0 ]
				}

			}
, 			{
				"patchline" : 				{
					"destination" : [ "obj-8", 2 ],
					"order" : 5,
					"source" : [ "obj-12", 0 ]
				}

			}
, 			{
				"patchline" : 				{
					"destination" : [ "obj-9", 2 ],
					"order" : 6,
					"source" : [ "obj-12", 0 ]
				}

			}
, 			{
				"patchline" : 				{
					"destination" : [ "obj-1", 0 ],
					"order" : 0,
					"source" : [ "obj-2", 0 ]
				}

			}
, 			{
				"patchline" : 				{
					"destination" : [ "obj-10", 0 ],
					"order" : 7,
					"source" : [ "obj-2", 0 ]
				}

			}
, 			{
				"patchline" : 				{
					"destination" : [ "obj-4", 0 ],
					"order" : 1,
					"source" : [ "obj-2", 0 ]
				}

			}
, 			{
				"patchline" : 				{
					"destination" : [ "obj-5", 0 ],
					"order" : 2,
					"source" : [ "obj-2", 0 ]
				}

			}
, 			{
				"patchline" : 				{
					"destination" : [ "obj-6", 0 ],
					"order" : 3,
					"source" : [ "obj-2", 0 ]
				}

			}
, 			{
				"patchline" : 				{
					"destination" : [ "obj-7", 0 ],
					"order" : 4,
					"source" : [ "obj-2", 0 ]
				}

			}
, 			{
				"patchline" : 				{
					"destination" : [ "obj-8", 0 ],
					"order" : 5,
					"source" : [ "obj-2", 0 ]
				}

			}
, 			{
				"patchline" : 				{
					"destination" : [ "obj-9", 0 ],
					"order" : 6,
					"source" : [ "obj-2", 0 ]
				}

			}
 ],
		"parameters" : 		{
			"obj-7::obj-146" : [ "Curve1[4]", "Map", 0 ],
			"obj-4::obj-1" : [ "live.text[6]", "live.text", 0 ],
			"obj-10::obj-69" : [ "live.toggle[16]", "live.toggle", 0 ],
			"obj-6::obj-1" : [ "live.text[15]", "live.text", 0 ],
			"obj-9::obj-146" : [ "Curve1[2]", "Map", 0 ],
			"obj-4::obj-3::obj-32::obj-15" : [ "Unmap[13]", "unmap", 0 ],
			"obj-7::obj-69" : [ "live.toggle[2]", "live.toggle", 0 ],
			"obj-9::obj-3::obj-32::obj-15" : [ "Unmap[8]", "unmap", 0 ],
			"obj-7::obj-20" : [ "Max[2]", "Max", 0 ],
			"obj-4::obj-20" : [ "Max[5]", "Max", 0 ],
			"obj-4::obj-146" : [ "Curve1[7]", "Map", 0 ],
			"obj-9::obj-20" : [ "Max[16]", "Max", 0 ],
			"obj-4::obj-69" : [ "live.toggle[5]", "live.toggle", 0 ],
			"obj-1::obj-20" : [ "Max[7]", "Max", 0 ],
			"obj-5::obj-146" : [ "Curve1[6]", "Map", 0 ],
			"obj-9::obj-40::obj-2" : [ "TouchOSCaddress[16]", "TouchOSCaddress", 0 ],
			"obj-7::obj-3::obj-32::obj-15" : [ "Unmap[10]", "unmap", 0 ],
			"obj-5::obj-40::obj-2" : [ "TouchOSCaddress[20]", "TouchOSCaddress", 0 ],
			"obj-1::obj-3::obj-32::obj-15" : [ "Unmap[14]", "unmap", 0 ],
			"obj-5::obj-3::obj-32::obj-19" : [ "Map[12]", "Map", 0 ],
			"obj-10::obj-3::obj-32::obj-19" : [ "Map[7]", "Map", 0 ],
			"obj-6::obj-69" : [ "live.toggle[3]", "live.toggle", 0 ],
			"obj-6::obj-40::obj-2" : [ "TouchOSCaddress[19]", "TouchOSCaddress", 0 ],
			"obj-5::obj-3::obj-32::obj-15" : [ "Unmap[12]", "unmap", 0 ],
			"obj-1::obj-146" : [ "Curve1[8]", "Map", 0 ],
			"obj-10::obj-1" : [ "live.text[11]", "live.text", 0 ],
			"obj-6::obj-3::obj-32::obj-19" : [ "Map[11]", "Map", 0 ],
			"obj-9::obj-21" : [ "Min[13]", "Min", 0 ],
			"obj-8::obj-69" : [ "live.toggle[1]", "live.toggle", 0 ],
			"obj-6::obj-21" : [ "Min[16]", "Min", 0 ],
			"obj-1::obj-21" : [ "Min[3]", "Min", 0 ],
			"obj-10::obj-3::obj-32::obj-15" : [ "Unmap[7]", "unmap", 0 ],
			"obj-10::obj-146" : [ "Curve1[1]", "Map", 0 ],
			"obj-1::obj-3::obj-32::obj-19" : [ "Map[14]", "Map", 0 ],
			"obj-9::obj-69" : [ "live.toggle[17]", "live.toggle", 0 ],
			"obj-7::obj-1" : [ "live.text[14]", "live.text", 0 ],
			"obj-5::obj-20" : [ "Max[4]", "Max", 0 ],
			"obj-9::obj-3::obj-32::obj-19" : [ "Map[8]", "Map", 0 ],
			"obj-8::obj-20" : [ "Max[1]", "Max", 0 ],
			"obj-8::obj-1" : [ "live.text[13]", "live.text", 0 ],
			"obj-7::obj-21" : [ "Min[15]", "Min", 0 ],
			"obj-8::obj-21" : [ "Min[14]", "Min", 0 ],
			"obj-5::obj-69" : [ "live.toggle[4]", "live.toggle", 0 ],
			"obj-1::obj-1" : [ "live.text[7]", "live.text", 0 ],
			"obj-7::obj-3::obj-32::obj-19" : [ "Map[10]", "Map", 0 ],
			"obj-8::obj-146" : [ "Curve1[3]", "Map", 0 ],
			"obj-7::obj-40::obj-2" : [ "TouchOSCaddress[18]", "TouchOSCaddress", 0 ],
			"obj-6::obj-3::obj-32::obj-15" : [ "Unmap[11]", "unmap", 0 ],
			"obj-5::obj-1" : [ "live.text[16]", "live.text", 0 ],
			"obj-1::obj-69" : [ "live.toggle[7]", "live.toggle", 0 ],
			"obj-10::obj-21" : [ "Min[12]", "Min", 0 ],
			"obj-5::obj-21" : [ "Min[1]", "Min", 0 ],
			"obj-6::obj-146" : [ "Curve1[5]", "Map", 0 ],
			"obj-4::obj-21" : [ "Min[2]", "Min", 0 ],
			"obj-10::obj-20" : [ "Max[15]", "Max", 0 ],
			"obj-8::obj-3::obj-32::obj-19" : [ "Map[9]", "Map", 0 ],
			"obj-4::obj-40::obj-2" : [ "TouchOSCaddress[21]", "TouchOSCaddress", 0 ],
			"obj-6::obj-20" : [ "Max[3]", "Max", 0 ],
			"obj-8::obj-40::obj-2" : [ "TouchOSCaddress[17]", "TouchOSCaddress", 0 ],
			"obj-1::obj-40::obj-2" : [ "TouchOSCaddress[22]", "TouchOSCaddress", 0 ],
			"obj-10::obj-40::obj-2" : [ "TouchOSCaddress[15]", "TouchOSCaddress", 0 ],
			"obj-8::obj-3::obj-32::obj-15" : [ "Unmap[9]", "unmap", 0 ],
			"obj-4::obj-3::obj-32::obj-19" : [ "Map[13]", "Map", 0 ],
			"obj-9::obj-1" : [ "live.text[12]", "live.text", 0 ],
			"parameterbanks" : 			{

			}

		}
,
		"dependency_cache" : [ 			{
				"name" : "MappingElement.maxpat",
				"bootpath" : "~/Desktop/SOUND/M4L/Max for Live Devices/OSC TouchOSC Project/patchers",
				"patcherrelativepath" : ".",
				"type" : "JSON",
				"implicit" : 1
			}
, 			{
				"name" : "M4L.IO.MapFunction.maxpat",
				"bootpath" : "~/Desktop/SOUND/M4L/Max for Live Devices/OSC TouchOSC Project/patchers",
				"patcherrelativepath" : ".",
				"type" : "JSON",
				"implicit" : 1
			}
 ],
		"autosave" : 0,
		"styles" : [ 			{
				"name" : "AudioStatus_Menu",
				"default" : 				{
					"bgfillcolor" : 					{
						"type" : "color",
						"color" : [ 0.294118, 0.313726, 0.337255, 1 ],
						"color1" : [ 0.454902, 0.462745, 0.482353, 0.0 ],
						"color2" : [ 0.290196, 0.309804, 0.301961, 1.0 ],
						"angle" : 270.0,
						"proportion" : 0.39,
						"autogradient" : 0
					}

				}
,
				"parentstyle" : "",
				"multi" : 0
			}
, 			{
				"name" : "newobjBlue-1",
				"default" : 				{
					"accentcolor" : [ 0.317647, 0.654902, 0.976471, 1.0 ]
				}
,
				"parentstyle" : "",
				"multi" : 0
			}
, 			{
				"name" : "newobjGreen-1",
				"default" : 				{
					"accentcolor" : [ 0.0, 0.533333, 0.168627, 1.0 ]
				}
,
				"parentstyle" : "",
				"multi" : 0
			}
, 			{
				"name" : "newobjYellow-1",
				"default" : 				{
					"accentcolor" : [ 0.82517, 0.78181, 0.059545, 1.0 ],
					"fontsize" : [ 12.059008 ]
				}
,
				"parentstyle" : "",
				"multi" : 0
			}
 ]
	}

}
